<svg width="47" height="45" viewBox="0 0 47 45" fill="none" xmlns="http://www.w3.org/2000/svg">
<path d="M47 0.261719H0V44.2617H47V0.261719Z" fill="#F9B517"/>
<path d="M6.512 10.0977V7.86566H4.752V10.0977H3.48V4.58566H4.752V6.72166H6.512V4.58566H7.8V10.0977H6.512ZM9.83325 6.12966V8.55366C9.83325 8.64432 9.84658 8.72166 9.87325 8.78566C9.90525 8.84432 9.94258 8.89232 9.98525 8.92966C10.0279 8.96699 10.0733 8.99366 10.1213 9.00966C10.1746 9.02566 10.2226 9.03366 10.2653 9.03366C10.3719 9.03366 10.4813 9.01499 10.5933 8.97766C10.7106 8.94032 10.8653 8.86032 11.0573 8.73766V6.12966H12.2413V10.0977H11.1853L11.1053 9.78566C10.9719 9.87099 10.8439 9.93766 10.7213 9.98566C10.6039 10.0337 10.4919 10.071 10.3853 10.0977C10.2839 10.119 10.1879 10.1323 10.0973 10.1377C10.0119 10.1483 9.93725 10.1537 9.87325 10.1537C9.64392 10.1537 9.44925 10.1137 9.28925 10.0337C9.13458 9.95366 9.00925 9.84699 8.91325 9.71366C8.81725 9.57499 8.74792 9.41499 8.70525 9.23366C8.66258 9.04699 8.64125 8.84699 8.64125 8.63366V6.12966H9.83325ZM17.5686 10.0977V7.67366C17.5686 7.48699 17.5286 7.36166 17.4486 7.29766C17.374 7.22832 17.2913 7.19366 17.2006 7.19366C17.094 7.19366 16.99 7.21499 16.8886 7.25766C16.7926 7.29499 16.662 7.37232 16.4966 7.48966V10.0977H15.3046V7.67366C15.3046 7.48699 15.2646 7.36166 15.1846 7.29766C15.11 7.22832 15.0273 7.19366 14.9366 7.19366C14.83 7.19366 14.726 7.21499 14.6246 7.25766C14.5233 7.29499 14.39 7.37232 14.2246 7.48966V10.0977H13.0406V6.12966H14.0966L14.1766 6.44166C14.31 6.35632 14.43 6.28966 14.5366 6.24166C14.6433 6.19366 14.7393 6.15899 14.8246 6.13766C14.9153 6.11099 14.9953 6.09499 15.0646 6.08966C15.1393 6.07899 15.2086 6.07366 15.2726 6.07366C15.518 6.07366 15.7206 6.11899 15.8806 6.20966C16.046 6.30032 16.174 6.42299 16.2646 6.57766C16.4353 6.46032 16.5846 6.36966 16.7126 6.30566C16.8406 6.23632 16.9553 6.18566 17.0566 6.15366C17.158 6.11632 17.246 6.09499 17.3206 6.08966C17.4006 6.07899 17.4726 6.07366 17.5366 6.07366C17.766 6.07366 17.958 6.11366 18.1126 6.19366C18.2726 6.27366 18.4006 6.38299 18.4966 6.52166C18.5926 6.65499 18.6593 6.81499 18.6966 7.00166C18.7393 7.18299 18.7606 7.38032 18.7606 7.59366V10.0977H17.5686ZM21.8452 9.79366C21.6372 9.91632 21.4372 10.0043 21.2452 10.0577C21.0585 10.1057 20.8825 10.1297 20.7172 10.1297C20.3012 10.1297 19.9839 10.023 19.7652 9.80966C19.5465 9.59099 19.4372 9.29232 19.4372 8.91366C19.4372 8.69499 19.4799 8.51099 19.5652 8.36166C19.6559 8.20699 19.7705 8.08166 19.9092 7.98566C20.0532 7.88966 20.2105 7.82032 20.3812 7.77766C20.5519 7.72966 20.7199 7.70566 20.8852 7.70566H21.8452V7.60166C21.8452 7.46299 21.8025 7.35099 21.7172 7.26566C21.6319 7.17499 21.4585 7.12966 21.1972 7.12966C21.0692 7.12966 20.9145 7.14832 20.7332 7.18566C20.5519 7.21766 20.3679 7.30832 20.1812 7.45766L19.6692 6.60966C19.9572 6.38566 20.2425 6.24166 20.5252 6.17766C20.8079 6.11366 21.0745 6.08166 21.3252 6.08166C21.9119 6.08166 22.3412 6.21499 22.6132 6.48166C22.8905 6.74299 23.0292 7.14832 23.0292 7.69766V10.0977H21.9412L21.8692 9.80166L21.8452 9.79366ZM21.8532 8.53766H21.1012C20.9999 8.53766 20.9119 8.55632 20.8372 8.59366C20.7679 8.63099 20.7332 8.70566 20.7332 8.81766C20.7332 8.88166 20.7572 8.94032 20.8052 8.99366C20.8585 9.04699 20.9492 9.07366 21.0772 9.07366C21.2372 9.07366 21.3865 9.04966 21.5252 9.00166C21.6692 8.95366 21.7785 8.90566 21.8532 8.85766V8.53766ZM26.2377 10.0977V7.67366C26.2377 7.48699 26.195 7.36166 26.1097 7.29766C26.0244 7.22832 25.923 7.19366 25.8057 7.19366C25.699 7.19366 25.587 7.21232 25.4697 7.24966C25.3577 7.28699 25.2057 7.36699 25.0137 7.48966V10.0977H23.8297V6.12966H24.8857L24.9657 6.44166C25.2324 6.27632 25.4697 6.17499 25.6777 6.13766C25.891 6.09499 26.0644 6.07366 26.1977 6.07366C26.427 6.07366 26.619 6.10832 26.7737 6.17766C26.9337 6.24699 27.0617 6.34566 27.1577 6.47366C27.2537 6.59632 27.323 6.74566 27.3657 6.92166C27.4084 7.09232 27.4297 7.28432 27.4297 7.49766V10.0977H26.2377Z" fill="#231F20"/>
<path d="M5.752 13.2297V17.5977H4.48V13.2297H3.08V12.0857H7.144V13.2297H5.752ZM10.1204 14.7817C9.77904 14.8137 9.49371 14.8643 9.26438 14.9337C9.03504 15.003 8.81371 15.1043 8.60038 15.2377V17.5977H7.42438V13.6297H8.52038L8.59238 14.2137H8.60038C8.66971 14.1443 8.76304 14.0723 8.88038 13.9977C8.99771 13.923 9.12304 13.8563 9.25638 13.7977C9.39504 13.7337 9.53904 13.683 9.68838 13.6457C9.83771 13.603 9.98171 13.5817 10.1204 13.5817V14.7817ZM12.9468 17.2937C12.7388 17.4163 12.5388 17.5043 12.3468 17.5577C12.1601 17.6057 11.9841 17.6297 11.8188 17.6297C11.4028 17.6297 11.0854 17.523 10.8668 17.3097C10.6481 17.091 10.5388 16.7923 10.5388 16.4137C10.5388 16.195 10.5814 16.011 10.6668 15.8617C10.7574 15.707 10.8721 15.5817 11.0108 15.4857C11.1548 15.3897 11.3121 15.3203 11.4828 15.2777C11.6534 15.2297 11.8214 15.2057 11.9868 15.2057H12.9468V15.1017C12.9468 14.963 12.9041 14.851 12.8188 14.7657C12.7334 14.675 12.5601 14.6297 12.2988 14.6297C12.1708 14.6297 12.0161 14.6483 11.8348 14.6857C11.6534 14.7177 11.4694 14.8083 11.2828 14.9577L10.7708 14.1097C11.0588 13.8857 11.3441 13.7417 11.6268 13.6777C11.9094 13.6137 12.1761 13.5817 12.4268 13.5817C13.0134 13.5817 13.4428 13.715 13.7148 13.9817C13.9921 14.243 14.1308 14.6483 14.1308 15.1977V17.5977H13.0428L12.9708 17.3017L12.9468 17.2937ZM12.9548 16.0377H12.2028C12.1014 16.0377 12.0134 16.0563 11.9388 16.0937C11.8694 16.131 11.8348 16.2057 11.8348 16.3177C11.8348 16.3817 11.8588 16.4403 11.9068 16.4937C11.9601 16.547 12.0508 16.5737 12.1788 16.5737C12.3388 16.5737 12.4881 16.5497 12.6268 16.5017C12.7708 16.4537 12.8801 16.4057 12.9548 16.3577V16.0377ZM19.6833 17.5977V14.5657H18.5473V17.5977H17.4113V14.5657H16.2753V17.5977H15.1393V14.5657H14.6913V13.6297H15.1393V13.2777C15.1393 13.0803 15.1713 12.9097 15.2353 12.7657C15.2993 12.6163 15.3846 12.4937 15.4913 12.3977C15.6033 12.3017 15.7339 12.2323 15.8833 12.1897C16.0326 12.1417 16.1926 12.1177 16.3633 12.1177H17.0513V13.0777H16.5872C16.3793 13.0777 16.2753 13.187 16.2753 13.4057V13.6297H17.4113V13.1257C17.4113 12.9283 17.4433 12.7577 17.5073 12.6137C17.5713 12.4643 17.6566 12.3417 17.7633 12.2457C17.8753 12.1497 18.0059 12.0803 18.1553 12.0377C18.3046 11.9897 18.4646 11.9657 18.6353 11.9657H19.3233V12.9257H18.8593C18.6513 12.9257 18.5473 13.035 18.5473 13.2537V13.6297H20.8673V17.5977H19.6833ZM19.6273 12.6217C19.6273 12.4403 19.6886 12.2883 19.8113 12.1657C19.9393 12.0377 20.0939 11.9737 20.2753 11.9737C20.4566 11.9737 20.6113 12.0377 20.7393 12.1657C20.8673 12.2883 20.9313 12.4403 20.9313 12.6217C20.9313 12.8083 20.8673 12.9657 20.7393 13.0937C20.6113 13.2163 20.4566 13.2777 20.2753 13.2777C20.0939 13.2777 19.9393 13.2163 19.8113 13.0937C19.6886 12.9657 19.6273 12.8083 19.6273 12.6217ZM24.9281 17.0057C24.7948 17.1443 24.6615 17.2563 24.5281 17.3417C24.3948 17.4217 24.2615 17.4857 24.1281 17.5337C23.9948 17.5763 23.8615 17.603 23.7281 17.6137C23.5948 17.6297 23.4641 17.6377 23.3361 17.6377C23.1228 17.6377 22.9175 17.611 22.7201 17.5577C22.5228 17.499 22.3468 17.411 22.1921 17.2937C22.0428 17.1763 21.9201 17.027 21.8241 16.8457C21.7335 16.6643 21.6881 16.4483 21.6881 16.1977V15.0137C21.6881 14.7683 21.7361 14.555 21.8321 14.3737C21.9335 14.1923 22.0641 14.043 22.2241 13.9257C22.3841 13.803 22.5601 13.715 22.7521 13.6617C22.9495 13.603 23.1441 13.5737 23.3361 13.5737C23.4641 13.5737 23.5921 13.579 23.7201 13.5897C23.8535 13.6003 23.9868 13.6243 24.1201 13.6617C24.2535 13.699 24.3841 13.7577 24.5121 13.8377C24.6455 13.9123 24.7761 14.0137 24.9041 14.1417L24.2321 14.9977C24.0455 14.8323 23.8908 14.7337 23.7681 14.7017C23.6455 14.6697 23.5415 14.6537 23.4561 14.6537C23.3121 14.6537 23.1761 14.699 23.0481 14.7897C22.9255 14.875 22.8641 15.019 22.8641 15.2217V15.9817C22.8641 16.1897 22.9228 16.3363 23.0401 16.4217C23.1575 16.507 23.2881 16.5497 23.4321 16.5497C23.5281 16.5497 23.6481 16.5257 23.7921 16.4777C23.9415 16.4297 24.0855 16.3363 24.2241 16.1977L24.9281 17.0057ZM25.4469 17.5977V11.8697H26.6469V14.7337H26.8469C26.9855 14.7337 27.0975 14.6963 27.1829 14.6217C27.2682 14.547 27.3455 14.443 27.4149 14.3097L27.7509 13.6377H29.0869L28.6069 14.6217C28.5322 14.7763 28.4522 14.907 28.3669 15.0137C28.2815 15.1203 28.1589 15.203 27.9989 15.2617C28.1109 15.299 28.2042 15.3497 28.2789 15.4137C28.3535 15.4723 28.4149 15.539 28.4629 15.6137C28.5109 15.6883 28.5509 15.7683 28.5829 15.8537C28.6149 15.939 28.6442 16.0243 28.6709 16.1097L29.1669 17.5977H27.8389L27.4469 16.3097C27.3935 16.1443 27.3189 16.0217 27.2229 15.9417C27.1322 15.8617 26.9855 15.8217 26.7829 15.8217H26.6469V17.5977H25.4469ZM29.8721 17.5977V13.6297H31.0561V17.5977H29.8721ZM29.8081 12.6137C29.8081 12.4323 29.8695 12.2803 29.9921 12.1577C30.1201 12.0297 30.2748 11.9657 30.4561 11.9657C30.6375 11.9657 30.7921 12.0297 30.9201 12.1577C31.0481 12.2803 31.1121 12.4323 31.1121 12.6137C31.1121 12.8003 31.0481 12.9577 30.9201 13.0857C30.7921 13.2083 30.6375 13.2697 30.4561 13.2697C30.2748 13.2697 30.1201 13.2083 29.9921 13.0857C29.8695 12.9577 29.8081 12.8003 29.8081 12.6137ZM34.4018 17.5977V15.1737C34.4018 14.987 34.3591 14.8617 34.2738 14.7977C34.1884 14.7283 34.0871 14.6937 33.9698 14.6937C33.8631 14.6937 33.7511 14.7123 33.6338 14.7497C33.5218 14.787 33.3698 14.867 33.1778 14.9897V17.5977H31.9938V13.6297H33.0498L33.1298 13.9417C33.3964 13.7763 33.6338 13.675 33.8418 13.6377C34.0551 13.595 34.2284 13.5737 34.3618 13.5737C34.5911 13.5737 34.7831 13.6083 34.9378 13.6777C35.0978 13.747 35.2258 13.8457 35.3218 13.9737C35.4178 14.0963 35.4871 14.2457 35.5298 14.4217C35.5724 14.5923 35.5938 14.7843 35.5938 14.9977V17.5977H34.4018ZM39.8411 17.8057C39.8411 18.0563 39.7798 18.2723 39.6571 18.4537C39.5345 18.635 39.3798 18.7843 39.1931 18.9017C39.0065 19.019 38.8011 19.1043 38.5771 19.1577C38.3585 19.2163 38.1505 19.2457 37.9531 19.2457C37.8251 19.2457 37.6865 19.235 37.5371 19.2137C37.3931 19.1977 37.2491 19.163 37.1051 19.1097C36.9611 19.0563 36.8171 18.9843 36.6731 18.8937C36.5345 18.803 36.4065 18.6883 36.2891 18.5497L37.0491 17.7897C37.1131 17.8697 37.1878 17.9337 37.2731 17.9817C37.3585 18.0297 37.4411 18.067 37.5211 18.0937C37.6065 18.1203 37.6865 18.1363 37.7611 18.1417C37.8411 18.1523 37.9051 18.1577 37.9531 18.1577C38.1558 18.1577 38.3238 18.115 38.4571 18.0297C38.5905 17.9497 38.6571 17.803 38.6571 17.5897V17.2457C38.4385 17.3737 38.2331 17.4617 38.0411 17.5097C37.8545 17.5523 37.6945 17.5737 37.5611 17.5737C37.3265 17.5737 37.1265 17.539 36.9611 17.4697C36.8011 17.4003 36.6678 17.3017 36.5611 17.1737C36.4598 17.0457 36.3851 16.8937 36.3371 16.7177C36.2945 16.5417 36.2731 16.347 36.2731 16.1337V15.0537C36.2731 14.579 36.3878 14.2163 36.6171 13.9657C36.8518 13.7097 37.1825 13.5817 37.6091 13.5817C37.7478 13.5817 37.9105 13.6083 38.0971 13.6617C38.2838 13.715 38.4705 13.803 38.6571 13.9257L38.7371 13.6297H39.8411V17.8057ZM37.4651 15.9737C37.4651 16.1603 37.5025 16.2883 37.5771 16.3577C37.6571 16.4217 37.7531 16.4537 37.8651 16.4537C37.9718 16.4537 38.0945 16.427 38.2331 16.3737C38.3771 16.315 38.5185 16.2403 38.6571 16.1497V14.9577C38.5505 14.883 38.4225 14.819 38.2731 14.7657C38.1238 14.707 37.9878 14.6777 37.8651 14.6777C37.7585 14.6777 37.6651 14.7177 37.5851 14.7977C37.5051 14.8723 37.4651 14.995 37.4651 15.1657V15.9737Z" fill="#231F20"/>
<path d="M5.96 19.5857C6.264 19.5857 6.52267 19.6363 6.736 19.7377C6.94933 19.839 7.12267 19.9723 7.256 20.1377C7.39467 20.303 7.49333 20.4923 7.552 20.7057C7.616 20.9137 7.648 21.1243 7.648 21.3377C7.648 21.4817 7.62667 21.6283 7.584 21.7777C7.54133 21.9217 7.48 22.0603 7.4 22.1937C7.32533 22.3217 7.232 22.4443 7.12 22.5617C7.008 22.6737 6.88267 22.7697 6.744 22.8497L7.728 25.0977H6.368L5.536 23.0657H4.752V25.0977H3.48V19.5857H5.96ZM4.752 21.9537H5.696C5.93067 21.9537 6.09867 21.895 6.2 21.7777C6.30667 21.655 6.36 21.5083 6.36 21.3377C6.36 21.167 6.30667 21.023 6.2 20.9057C6.09333 20.783 5.92533 20.7217 5.696 20.7217H4.752V21.9537ZM11.6838 23.4417H9.37975V23.4897C9.37975 23.687 9.43842 23.831 9.55575 23.9217C9.67842 24.0123 9.81708 24.0577 9.97175 24.0577C10.0678 24.0577 10.1958 24.0443 10.3558 24.0177C10.5211 23.991 10.7024 23.9083 10.8998 23.7697L11.5238 24.5777C11.3904 24.7003 11.2598 24.799 11.1318 24.8737C11.0091 24.943 10.8838 24.999 10.7558 25.0417C10.6331 25.079 10.5078 25.103 10.3798 25.1137C10.2571 25.1297 10.1318 25.1377 10.0038 25.1377C9.76908 25.1377 9.54242 25.1083 9.32375 25.0497C9.10508 24.991 8.91308 24.903 8.74775 24.7857C8.58242 24.663 8.44908 24.5083 8.34775 24.3217C8.25175 24.135 8.20375 23.9163 8.20375 23.6657V22.6417C8.20375 22.3857 8.24908 22.1617 8.33975 21.9697C8.43575 21.7777 8.56375 21.615 8.72375 21.4817C8.88375 21.3483 9.06775 21.2497 9.27575 21.1857C9.48375 21.1163 9.70508 21.0817 9.93975 21.0817C10.1904 21.0817 10.4224 21.1163 10.6358 21.1857C10.8491 21.255 11.0331 21.3563 11.1878 21.4897C11.3424 21.6177 11.4624 21.7803 11.5478 21.9777C11.6384 22.1697 11.6838 22.3937 11.6838 22.6497V23.4417ZM10.4998 22.6577C10.4998 22.4977 10.4438 22.375 10.3318 22.2897C10.2198 22.2043 10.0918 22.1617 9.94775 22.1617C9.79842 22.1617 9.66508 22.2097 9.54775 22.3057C9.43575 22.3963 9.37975 22.519 9.37975 22.6737V22.7057H10.4998V22.6577ZM13.92 25.1377C13.7867 25.1377 13.6507 25.1297 13.512 25.1137C13.3733 25.103 13.2293 25.079 13.08 25.0417C12.936 24.999 12.7867 24.9377 12.632 24.8577C12.4827 24.7777 12.3307 24.6683 12.176 24.5297L12.8 23.6897C13.0027 23.855 13.184 23.9697 13.344 24.0337C13.5093 24.0923 13.6853 24.1217 13.872 24.1217C14.0427 24.1217 14.1707 24.0977 14.256 24.0497C14.3467 23.9963 14.392 23.935 14.392 23.8657C14.392 23.8017 14.368 23.7457 14.32 23.6977C14.2773 23.6443 14.1653 23.6017 13.984 23.5697C13.8133 23.5377 13.632 23.503 13.44 23.4657C13.2533 23.423 13.08 23.3617 12.92 23.2817C12.76 23.1963 12.6267 23.0843 12.52 22.9457C12.4187 22.807 12.368 22.6203 12.368 22.3857C12.368 22.167 12.4107 21.9777 12.496 21.8177C12.5867 21.6577 12.704 21.5243 12.848 21.4177C12.992 21.311 13.152 21.231 13.328 21.1777C13.5093 21.1243 13.6933 21.0977 13.88 21.0977C14.1733 21.0977 14.448 21.127 14.704 21.1857C14.9653 21.239 15.232 21.367 15.504 21.5697L14.952 22.4577C14.7387 22.3137 14.5493 22.223 14.384 22.1857C14.2187 22.1483 14.0613 22.1297 13.912 22.1297C13.7627 22.1297 13.6613 22.1537 13.608 22.2017C13.56 22.2497 13.536 22.3003 13.536 22.3537C13.536 22.4337 13.5867 22.4923 13.688 22.5297C13.7947 22.5617 13.9227 22.591 14.072 22.6177C14.2267 22.6443 14.3947 22.6763 14.576 22.7137C14.7573 22.751 14.9227 22.8123 15.072 22.8977C15.2267 22.9777 15.3547 23.095 15.456 23.2497C15.5627 23.399 15.616 23.599 15.616 23.8497C15.616 24.063 15.568 24.2497 15.472 24.4097C15.3813 24.5697 15.256 24.7057 15.096 24.8177C14.9413 24.9243 14.76 25.0043 14.552 25.0577C14.3493 25.111 14.1387 25.1377 13.92 25.1377ZM19.6213 23.4417H17.3173V23.4897C17.3173 23.687 17.3759 23.831 17.4933 23.9217C17.6159 24.0123 17.7546 24.0577 17.9093 24.0577C18.0053 24.0577 18.1333 24.0443 18.2933 24.0177C18.4586 23.991 18.6399 23.9083 18.8373 23.7697L19.4613 24.5777C19.3279 24.7003 19.1973 24.799 19.0693 24.8737C18.9466 24.943 18.8213 24.999 18.6933 25.0417C18.5706 25.079 18.4453 25.103 18.3173 25.1137C18.1946 25.1297 18.0693 25.1377 17.9413 25.1377C17.7066 25.1377 17.4799 25.1083 17.2613 25.0497C17.0426 24.991 16.8506 24.903 16.6853 24.7857C16.5199 24.663 16.3866 24.5083 16.2853 24.3217C16.1893 24.135 16.1413 23.9163 16.1413 23.6657V22.6417C16.1413 22.3857 16.1866 22.1617 16.2773 21.9697C16.3733 21.7777 16.5013 21.615 16.6613 21.4817C16.8213 21.3483 17.0053 21.2497 17.2133 21.1857C17.4213 21.1163 17.6426 21.0817 17.8773 21.0817C18.1279 21.0817 18.3599 21.1163 18.5733 21.1857C18.7866 21.255 18.9706 21.3563 19.1253 21.4897C19.2799 21.6177 19.3999 21.7803 19.4853 21.9777C19.5759 22.1697 19.6213 22.3937 19.6213 22.6497V23.4417ZM18.4373 22.6577C18.4373 22.4977 18.3813 22.375 18.2693 22.2897C18.1573 22.2043 18.0293 22.1617 17.8853 22.1617C17.7359 22.1617 17.6026 22.2097 17.4853 22.3057C17.3733 22.3963 17.3173 22.519 17.3173 22.6737V22.7057H18.4373V22.6577ZM22.6655 24.7937C22.4575 24.9163 22.2575 25.0043 22.0655 25.0577C21.8788 25.1057 21.7028 25.1297 21.5375 25.1297C21.1215 25.1297 20.8042 25.023 20.5855 24.8097C20.3668 24.591 20.2575 24.2923 20.2575 23.9137C20.2575 23.695 20.3002 23.511 20.3855 23.3617C20.4762 23.207 20.5908 23.0817 20.7295 22.9857C20.8735 22.8897 21.0308 22.8203 21.2015 22.7777C21.3722 22.7297 21.5402 22.7057 21.7055 22.7057H22.6655V22.6017C22.6655 22.463 22.6228 22.351 22.5375 22.2657C22.4522 22.175 22.2788 22.1297 22.0175 22.1297C21.8895 22.1297 21.7348 22.1483 21.5535 22.1857C21.3722 22.2177 21.1882 22.3083 21.0015 22.4577L20.4895 21.6097C20.7775 21.3857 21.0628 21.2417 21.3455 21.1777C21.6282 21.1137 21.8948 21.0817 22.1455 21.0817C22.7322 21.0817 23.1615 21.215 23.4335 21.4817C23.7108 21.743 23.8495 22.1483 23.8495 22.6977V25.0977H22.7615L22.6895 24.8017L22.6655 24.7937ZM22.6735 23.5377H21.9215C21.8202 23.5377 21.7322 23.5563 21.6575 23.5937C21.5882 23.631 21.5535 23.7057 21.5535 23.8177C21.5535 23.8817 21.5775 23.9403 21.6255 23.9937C21.6788 24.047 21.7695 24.0737 21.8975 24.0737C22.0575 24.0737 22.2068 24.0497 22.3455 24.0017C22.4895 23.9537 22.5988 23.9057 22.6735 23.8577V23.5377ZM27.386 22.2817C27.0447 22.3137 26.7593 22.3643 26.53 22.4337C26.3007 22.503 26.0793 22.6043 25.866 22.7377V25.0977H24.69V21.1297H25.786L25.858 21.7137H25.866C25.9353 21.6443 26.0287 21.5723 26.146 21.4977C26.2633 21.423 26.3887 21.3563 26.522 21.2977C26.6607 21.2337 26.8047 21.183 26.954 21.1457C27.1033 21.103 27.2473 21.0817 27.386 21.0817V22.2817ZM31.0844 24.5057C30.951 24.6443 30.8177 24.7563 30.6844 24.8417C30.551 24.9217 30.4177 24.9857 30.2844 25.0337C30.151 25.0763 30.0177 25.103 29.8844 25.1137C29.751 25.1297 29.6204 25.1377 29.4924 25.1377C29.279 25.1377 29.0737 25.111 28.8764 25.0577C28.679 24.999 28.503 24.911 28.3484 24.7937C28.199 24.6763 28.0764 24.527 27.9804 24.3457C27.8897 24.1643 27.8444 23.9483 27.8444 23.6977V22.5137C27.8444 22.2683 27.8924 22.055 27.9884 21.8737C28.0897 21.6923 28.2204 21.543 28.3804 21.4257C28.5404 21.303 28.7164 21.215 28.9084 21.1617C29.1057 21.103 29.3004 21.0737 29.4924 21.0737C29.6204 21.0737 29.7484 21.079 29.8764 21.0897C30.0097 21.1003 30.143 21.1243 30.2764 21.1617C30.4097 21.199 30.5404 21.2577 30.6684 21.3377C30.8017 21.4123 30.9324 21.5137 31.0604 21.6417L30.3884 22.4977C30.2017 22.3323 30.047 22.2337 29.9244 22.2017C29.8017 22.1697 29.6977 22.1537 29.6124 22.1537C29.4684 22.1537 29.3324 22.199 29.2044 22.2897C29.0817 22.375 29.0204 22.519 29.0204 22.7217V23.4817C29.0204 23.6897 29.079 23.8363 29.1964 23.9217C29.3137 24.007 29.4444 24.0497 29.5884 24.0497C29.6844 24.0497 29.8044 24.0257 29.9484 23.9777C30.0977 23.9297 30.2417 23.8363 30.3804 23.6977L31.0844 24.5057ZM34.0111 25.0977V22.6737C34.0111 22.4923 33.9631 22.367 33.8671 22.2977C33.7765 22.2283 33.6805 22.1937 33.5791 22.1937C33.4725 22.1937 33.3605 22.2123 33.2431 22.2497C33.1311 22.287 32.9791 22.367 32.7871 22.4897V25.0977H31.6031V19.3697H32.7871V21.4417C33.0538 21.2763 33.2831 21.175 33.4751 21.1377C33.6725 21.095 33.8378 21.0737 33.9711 21.0737C34.2005 21.0737 34.3925 21.111 34.5471 21.1857C34.7071 21.255 34.8351 21.3537 34.9311 21.4817C35.0271 21.6097 35.0965 21.7617 35.1391 21.9377C35.1818 22.1137 35.2031 22.3083 35.2031 22.5217V25.0977H34.0111Z" fill="#231F20"/>
<path d="M6.76 28.5817C6.57867 28.427 6.392 28.3257 6.2 28.2777C6.01333 28.2243 5.832 28.1977 5.656 28.1977C5.54933 28.1977 5.44267 28.2137 5.336 28.2457C5.22933 28.2777 5.13333 28.3283 5.048 28.3977C4.96267 28.4617 4.89067 28.5497 4.832 28.6617C4.77867 28.7683 4.752 28.9017 4.752 29.0617V30.6217C4.752 30.7817 4.77867 30.9177 4.832 31.0297C4.89067 31.1363 4.96267 31.2243 5.048 31.2937C5.13867 31.3577 5.23733 31.4057 5.344 31.4377C5.45067 31.4697 5.55733 31.4857 5.664 31.4857C5.83467 31.4857 6.01067 31.4617 6.192 31.4137C6.37333 31.3603 6.56533 31.2563 6.768 31.1017L7.368 32.0937C7.144 32.2803 6.88 32.4217 6.576 32.5177C6.27733 32.6083 5.96533 32.6537 5.64 32.6537C5.384 32.6537 5.12533 32.619 4.864 32.5497C4.608 32.4803 4.376 32.3737 4.168 32.2297C3.96533 32.0857 3.8 31.9043 3.672 31.6857C3.544 31.4617 3.48 31.1977 3.48 30.8937V28.8137C3.48 28.5097 3.54133 28.2483 3.664 28.0297C3.792 27.8057 3.95733 27.6217 4.16 27.4777C4.36267 27.3283 4.58933 27.219 4.84 27.1497C5.096 27.075 5.35467 27.0377 5.616 27.0377C5.94133 27.0377 6.26133 27.083 6.576 27.1737C6.89067 27.2643 7.15733 27.4057 7.376 27.5977L6.76 28.5817ZM11.4572 30.9417H9.15319V30.9897C9.15319 31.187 9.21185 31.331 9.32919 31.4217C9.45185 31.5123 9.59052 31.5577 9.74519 31.5577C9.84119 31.5577 9.96919 31.5443 10.1292 31.5177C10.2945 31.491 10.4759 31.4083 10.6732 31.2697L11.2972 32.0777C11.1639 32.2003 11.0332 32.299 10.9052 32.3737C10.7825 32.443 10.6572 32.499 10.5292 32.5417C10.4065 32.579 10.2812 32.603 10.1532 32.6137C10.0305 32.6297 9.90519 32.6377 9.77719 32.6377C9.54252 32.6377 9.31585 32.6083 9.09719 32.5497C8.87852 32.491 8.68652 32.403 8.52119 32.2857C8.35585 32.163 8.22252 32.0083 8.12119 31.8217C8.02519 31.635 7.97719 31.4163 7.97719 31.1657V30.1417C7.97719 29.8857 8.02252 29.6617 8.11319 29.4697C8.20919 29.2777 8.33719 29.115 8.49719 28.9817C8.65719 28.8483 8.84119 28.7497 9.04919 28.6857C9.25719 28.6163 9.47852 28.5817 9.71319 28.5817C9.96385 28.5817 10.1959 28.6163 10.4092 28.6857C10.6225 28.755 10.8065 28.8563 10.9612 28.9897C11.1159 29.1177 11.2359 29.2803 11.3212 29.4777C11.4119 29.6697 11.4572 29.8937 11.4572 30.1497V30.9417ZM10.2732 30.1577C10.2732 29.9977 10.2172 29.875 10.1052 29.7897C9.99319 29.7043 9.86519 29.6617 9.72119 29.6617C9.57185 29.6617 9.43852 29.7097 9.32119 29.8057C9.20919 29.8963 9.15319 30.019 9.15319 30.1737V30.2057H10.2732V30.1577ZM14.5814 32.5977V30.1737C14.5814 29.987 14.5388 29.8617 14.4534 29.7977C14.3681 29.7283 14.2668 29.6937 14.1494 29.6937C14.0428 29.6937 13.9308 29.7123 13.8134 29.7497C13.7014 29.787 13.5494 29.867 13.3574 29.9897V32.5977H12.1734V28.6297H13.2294L13.3094 28.9417C13.5761 28.7763 13.8134 28.675 14.0214 28.6377C14.2348 28.595 14.4081 28.5737 14.5414 28.5737C14.7708 28.5737 14.9628 28.6083 15.1174 28.6777C15.2774 28.747 15.4054 28.8457 15.5014 28.9737C15.5974 29.0963 15.6668 29.2457 15.7094 29.4217C15.7521 29.5923 15.7734 29.7843 15.7734 29.9977V32.5977H14.5814ZM16.3008 29.5577V28.6297H16.7888L16.9728 27.6297H17.9328V28.6297H18.8208V29.5577H17.9328V31.0937C17.9328 31.2857 17.9755 31.4137 18.0608 31.4777C18.1461 31.5363 18.2901 31.5657 18.4928 31.5657C18.6421 31.5657 18.8261 31.5577 19.0448 31.5417L19.1408 32.4937C18.9648 32.5577 18.7835 32.5977 18.5968 32.6137C18.4155 32.635 18.2501 32.6457 18.1008 32.6457C17.8181 32.6457 17.5888 32.6137 17.4128 32.5497C17.2421 32.4803 17.1088 32.387 17.0128 32.2697C16.9168 32.1523 16.8501 32.0137 16.8128 31.8537C16.7808 31.6883 16.7648 31.507 16.7648 31.3097V29.5577H16.3008ZM23.0353 30.9417H20.7313V30.9897C20.7313 31.187 20.79 31.331 20.9073 31.4217C21.03 31.5123 21.1686 31.5577 21.3233 31.5577C21.4193 31.5577 21.5473 31.5443 21.7073 31.5177C21.8726 31.491 22.054 31.4083 22.2513 31.2697L22.8753 32.0777C22.742 32.2003 22.6113 32.299 22.4833 32.3737C22.3606 32.443 22.2353 32.499 22.1073 32.5417C21.9846 32.579 21.8593 32.603 21.7313 32.6137C21.6086 32.6297 21.4833 32.6377 21.3553 32.6377C21.1206 32.6377 20.894 32.6083 20.6753 32.5497C20.4566 32.491 20.2646 32.403 20.0993 32.2857C19.934 32.163 19.8006 32.0083 19.6993 31.8217C19.6033 31.635 19.5553 31.4163 19.5553 31.1657V30.1417C19.5553 29.8857 19.6006 29.6617 19.6913 29.4697C19.7873 29.2777 19.9153 29.115 20.0753 28.9817C20.2353 28.8483 20.4193 28.7497 20.6273 28.6857C20.8353 28.6163 21.0566 28.5817 21.2913 28.5817C21.542 28.5817 21.774 28.6163 21.9873 28.6857C22.2006 28.755 22.3846 28.8563 22.5393 28.9897C22.694 29.1177 22.814 29.2803 22.8993 29.4777C22.99 29.6697 23.0353 29.8937 23.0353 30.1497V30.9417ZM21.8513 30.1577C21.8513 29.9977 21.7953 29.875 21.6833 29.7897C21.5713 29.7043 21.4433 29.6617 21.2993 29.6617C21.15 29.6617 21.0166 29.7097 20.8993 29.8057C20.7873 29.8963 20.7313 30.019 20.7313 30.1737V30.2057H21.8513V30.1577ZM26.4876 29.7817C26.1462 29.8137 25.8609 29.8643 25.6316 29.9337C25.4022 30.003 25.1809 30.1043 24.9676 30.2377V32.5977H23.7916V28.6297H24.8876L24.9596 29.2137H24.9676C25.0369 29.1443 25.1302 29.0723 25.2476 28.9977C25.3649 28.923 25.4902 28.8563 25.6236 28.7977C25.7622 28.7337 25.9062 28.683 26.0556 28.6457C26.2049 28.603 26.3489 28.5817 26.4876 28.5817V29.7817Z" fill="#231F20"/>
</svg>
